<mxfile modified="2021-04-14T14:23:43.385Z" host="app.diagrams.net" agent="5.0 (Macintosh; Intel Mac OS X 10_15_7) AppleWebKit/537.36 (KHTML, like Gecko) Chrome/89.0.4389.114 Safari/537.36" etag="Lo_6iM6sxeplKZpgCvmO" version="14.6.0" type="github">
  <diagram id="Ht1M8jgEwFfnCIfOTk4-" name="Page-1">
    <mxGraphModel dx="2146" dy="966" grid="1" gridSize="10" guides="1" tooltips="1" connect="1" arrows="1" fold="1" page="1" pageScale="1" pageWidth="1169" pageHeight="827" math="0" shadow="0">
      <root>
        <mxCell id="0" />
        <mxCell id="1" parent="0" />
        <mxCell id="jwMBtuU9bVzpTwX1WS7d-1" value="AWS Cloud" style="points=[[0,0],[0.25,0],[0.5,0],[0.75,0],[1,0],[1,0.25],[1,0.5],[1,0.75],[1,1],[0.75,1],[0.5,1],[0.25,1],[0,1],[0,0.75],[0,0.5],[0,0.25]];outlineConnect=0;gradientColor=none;html=1;whiteSpace=wrap;fontSize=12;fontStyle=0;shape=mxgraph.aws4.group;grIcon=mxgraph.aws4.group_aws_cloud_alt;strokeColor=#232F3E;fillColor=none;verticalAlign=top;align=left;spacingLeft=30;fontColor=#232F3E;dashed=0;" vertex="1" parent="1">
          <mxGeometry x="290" y="120" width="830" height="640" as="geometry" />
        </mxCell>
        <mxCell id="jwMBtuU9bVzpTwX1WS7d-3" value="" style="outlineConnect=0;fontColor=#232F3E;gradientColor=none;fillColor=#232F3E;strokeColor=none;dashed=0;verticalLabelPosition=bottom;verticalAlign=top;align=center;html=1;fontSize=12;fontStyle=0;aspect=fixed;pointerEvents=1;shape=mxgraph.aws4.users;" vertex="1" parent="1">
          <mxGeometry x="492" y="10" width="78" height="78" as="geometry" />
        </mxCell>
        <mxCell id="jwMBtuU9bVzpTwX1WS7d-5" value="VPC" style="points=[[0,0],[0.25,0],[0.5,0],[0.75,0],[1,0],[1,0.25],[1,0.5],[1,0.75],[1,1],[0.75,1],[0.5,1],[0.25,1],[0,1],[0,0.75],[0,0.5],[0,0.25]];outlineConnect=0;gradientColor=none;html=1;whiteSpace=wrap;fontSize=12;fontStyle=0;shape=mxgraph.aws4.group;grIcon=mxgraph.aws4.group_vpc;strokeColor=#248814;fillColor=none;verticalAlign=top;align=left;spacingLeft=30;fontColor=#AAB7B8;dashed=0;" vertex="1" parent="1">
          <mxGeometry x="440" y="210" width="600" height="500" as="geometry" />
        </mxCell>
        <mxCell id="jwMBtuU9bVzpTwX1WS7d-6" value="Users&lt;br&gt;" style="text;html=1;align=center;verticalAlign=middle;resizable=0;points=[];autosize=1;strokeColor=none;" vertex="1" parent="1">
          <mxGeometry x="506" y="88" width="50" height="20" as="geometry" />
        </mxCell>
        <mxCell id="jwMBtuU9bVzpTwX1WS7d-7" value="" style="outlineConnect=0;dashed=0;verticalLabelPosition=bottom;verticalAlign=top;align=center;html=1;shape=mxgraph.aws3.route_53;fillColor=#F58536;gradientColor=none;" vertex="1" parent="1">
          <mxGeometry x="704.75" y="80" width="70.5" height="85.5" as="geometry" />
        </mxCell>
        <mxCell id="jwMBtuU9bVzpTwX1WS7d-9" value="Route53" style="text;html=1;align=center;verticalAlign=middle;resizable=0;points=[];autosize=1;strokeColor=none;" vertex="1" parent="1">
          <mxGeometry x="710" y="165.5" width="60" height="20" as="geometry" />
        </mxCell>
        <mxCell id="jwMBtuU9bVzpTwX1WS7d-13" value="" style="edgeStyle=orthogonalEdgeStyle;html=1;endArrow=block;elbow=vertical;startArrow=block;startFill=1;endFill=1;strokeColor=#545B64;rounded=0;exitX=0.5;exitY=0;exitDx=0;exitDy=0;exitPerimeter=0;" edge="1" parent="1" source="jwMBtuU9bVzpTwX1WS7d-7">
          <mxGeometry width="100" relative="1" as="geometry">
            <mxPoint x="700" y="49" as="sourcePoint" />
            <mxPoint x="580" y="49" as="targetPoint" />
            <Array as="points">
              <mxPoint x="740" y="49" />
            </Array>
          </mxGeometry>
        </mxCell>
        <mxCell id="jwMBtuU9bVzpTwX1WS7d-15" value="" style="dashed=0;outlineConnect=0;html=1;align=center;labelPosition=center;verticalLabelPosition=bottom;verticalAlign=top;shape=mxgraph.weblogos.twitter;fillColor=#1DA1F2;strokeColor=none" vertex="1" parent="1">
          <mxGeometry x="800" y="30" width="50" height="40" as="geometry" />
        </mxCell>
        <mxCell id="jwMBtuU9bVzpTwX1WS7d-16" value="Twitter API" style="text;html=1;align=center;verticalAlign=middle;resizable=0;points=[];autosize=1;strokeColor=none;" vertex="1" parent="1">
          <mxGeometry x="790" y="70" width="70" height="20" as="geometry" />
        </mxCell>
        <mxCell id="jwMBtuU9bVzpTwX1WS7d-20" value="Public subnet" style="points=[[0,0],[0.25,0],[0.5,0],[0.75,0],[1,0],[1,0.25],[1,0.5],[1,0.75],[1,1],[0.75,1],[0.5,1],[0.25,1],[0,1],[0,0.75],[0,0.5],[0,0.25]];outlineConnect=0;gradientColor=none;html=1;whiteSpace=wrap;fontSize=12;fontStyle=0;shape=mxgraph.aws4.group;grIcon=mxgraph.aws4.group_security_group;grStroke=0;strokeColor=#248814;fillColor=#E9F3E6;verticalAlign=top;align=left;spacingLeft=30;fontColor=#248814;dashed=0;" vertex="1" parent="1">
          <mxGeometry x="483.25" y="400" width="243.5" height="250" as="geometry" />
        </mxCell>
        <mxCell id="jwMBtuU9bVzpTwX1WS7d-19" value="" style="outlineConnect=0;dashed=0;verticalLabelPosition=bottom;verticalAlign=top;align=center;html=1;shape=mxgraph.aws3.ec2;fillColor=#F58534;gradientColor=none;" vertex="1" parent="1">
          <mxGeometry x="566.75" y="478.5" width="76.5" height="93" as="geometry" />
        </mxCell>
        <mxCell id="jwMBtuU9bVzpTwX1WS7d-21" value="Private subnet" style="points=[[0,0],[0.25,0],[0.5,0],[0.75,0],[1,0],[1,0.25],[1,0.5],[1,0.75],[1,1],[0.75,1],[0.5,1],[0.25,1],[0,1],[0,0.75],[0,0.5],[0,0.25]];outlineConnect=0;gradientColor=none;html=1;whiteSpace=wrap;fontSize=12;fontStyle=0;shape=mxgraph.aws4.group;grIcon=mxgraph.aws4.group_security_group;grStroke=0;strokeColor=#147EBA;fillColor=#E6F2F8;verticalAlign=top;align=left;spacingLeft=30;fontColor=#147EBA;dashed=0;" vertex="1" parent="1">
          <mxGeometry x="770" y="400" width="243.5" height="250" as="geometry" />
        </mxCell>
        <mxCell id="jwMBtuU9bVzpTwX1WS7d-18" value="" style="outlineConnect=0;dashed=0;verticalLabelPosition=bottom;verticalAlign=top;align=center;html=1;shape=mxgraph.aws3.rds;fillColor=#2E73B8;gradientColor=none;" vertex="1" parent="1">
          <mxGeometry x="855.75" y="484.5" width="72" height="81" as="geometry" />
        </mxCell>
        <mxCell id="jwMBtuU9bVzpTwX1WS7d-22" value="" style="outlineConnect=0;dashed=0;verticalLabelPosition=bottom;verticalAlign=top;align=center;html=1;shape=mxgraph.aws3.elastic_load_balancing;fillColor=#F58534;gradientColor=none;" vertex="1" parent="1">
          <mxGeometry x="701.75" y="250" width="76.5" height="93" as="geometry" />
        </mxCell>
        <mxCell id="jwMBtuU9bVzpTwX1WS7d-23" value="ELB&lt;br&gt;" style="text;html=1;align=center;verticalAlign=middle;resizable=0;points=[];autosize=1;strokeColor=none;" vertex="1" parent="1">
          <mxGeometry x="720" y="343" width="40" height="20" as="geometry" />
        </mxCell>
        <mxCell id="jwMBtuU9bVzpTwX1WS7d-24" value="EC2&lt;br&gt;" style="text;html=1;align=center;verticalAlign=middle;resizable=0;points=[];autosize=1;strokeColor=none;" vertex="1" parent="1">
          <mxGeometry x="585" y="571.5" width="40" height="20" as="geometry" />
        </mxCell>
        <mxCell id="jwMBtuU9bVzpTwX1WS7d-25" value="RDS&lt;br&gt;" style="text;html=1;align=center;verticalAlign=middle;resizable=0;points=[];autosize=1;strokeColor=none;" vertex="1" parent="1">
          <mxGeometry x="871.75" y="565.5" width="40" height="20" as="geometry" />
        </mxCell>
        <mxCell id="jwMBtuU9bVzpTwX1WS7d-26" value="" style="edgeStyle=orthogonalEdgeStyle;html=1;endArrow=block;elbow=vertical;startArrow=block;startFill=1;endFill=1;strokeColor=#545B64;rounded=0;exitX=0.5;exitY=0;exitDx=0;exitDy=0;exitPerimeter=0;entryX=0;entryY=0.5;entryDx=0;entryDy=0;entryPerimeter=0;" edge="1" parent="1" source="jwMBtuU9bVzpTwX1WS7d-19" target="jwMBtuU9bVzpTwX1WS7d-22">
          <mxGeometry width="100" relative="1" as="geometry">
            <mxPoint x="585" y="343" as="sourcePoint" />
            <mxPoint x="640" y="270" as="targetPoint" />
            <Array as="points">
              <mxPoint x="605" y="297" />
              <mxPoint x="640" y="297" />
            </Array>
          </mxGeometry>
        </mxCell>
        <mxCell id="jwMBtuU9bVzpTwX1WS7d-30" value="" style="edgeStyle=orthogonalEdgeStyle;html=1;endArrow=block;elbow=vertical;startArrow=block;startFill=1;endFill=1;strokeColor=#545B64;rounded=0;entryX=0.5;entryY=0;entryDx=0;entryDy=0;entryPerimeter=0;" edge="1" parent="1" target="jwMBtuU9bVzpTwX1WS7d-22">
          <mxGeometry width="100" relative="1" as="geometry">
            <mxPoint x="740" y="186" as="sourcePoint" />
            <mxPoint x="790" y="230" as="targetPoint" />
          </mxGeometry>
        </mxCell>
        <mxCell id="jwMBtuU9bVzpTwX1WS7d-32" value="" style="edgeStyle=orthogonalEdgeStyle;html=1;endArrow=block;elbow=vertical;startArrow=block;startFill=1;endFill=1;strokeColor=#545B64;rounded=0;exitX=1;exitY=0.5;exitDx=0;exitDy=0;exitPerimeter=0;entryX=0;entryY=0.5;entryDx=0;entryDy=0;entryPerimeter=0;" edge="1" parent="1" source="jwMBtuU9bVzpTwX1WS7d-19" target="jwMBtuU9bVzpTwX1WS7d-18">
          <mxGeometry width="100" relative="1" as="geometry">
            <mxPoint x="704.75" y="530" as="sourcePoint" />
            <mxPoint x="804.75" y="530" as="targetPoint" />
          </mxGeometry>
        </mxCell>
        <mxCell id="jwMBtuU9bVzpTwX1WS7d-33" value="" style="outlineConnect=0;dashed=0;verticalLabelPosition=bottom;verticalAlign=top;align=center;html=1;shape=mxgraph.aws3.ses;fillColor=#D9A741;gradientColor=none;" vertex="1" parent="1">
          <mxGeometry x="320" y="160" width="79.5" height="93" as="geometry" />
        </mxCell>
        <mxCell id="jwMBtuU9bVzpTwX1WS7d-34" value="Amazon&amp;nbsp; SES" style="text;html=1;align=center;verticalAlign=middle;resizable=0;points=[];autosize=1;strokeColor=none;" vertex="1" parent="1">
          <mxGeometry x="314.75" y="260" width="90" height="20" as="geometry" />
        </mxCell>
        <mxCell id="jwMBtuU9bVzpTwX1WS7d-35" value="" style="endArrow=classic;html=1;entryX=0.525;entryY=1.15;entryDx=0;entryDy=0;entryPerimeter=0;exitX=0;exitY=0.5;exitDx=0;exitDy=0;exitPerimeter=0;" edge="1" parent="1" source="jwMBtuU9bVzpTwX1WS7d-19" target="jwMBtuU9bVzpTwX1WS7d-34">
          <mxGeometry width="50" height="50" relative="1" as="geometry">
            <mxPoint x="480" y="510" as="sourcePoint" />
            <mxPoint x="530" y="460" as="targetPoint" />
          </mxGeometry>
        </mxCell>
        <mxCell id="jwMBtuU9bVzpTwX1WS7d-36" value="" style="endArrow=classic;html=1;exitX=0.58;exitY=0;exitDx=0;exitDy=0;exitPerimeter=0;" edge="1" parent="1" source="jwMBtuU9bVzpTwX1WS7d-33">
          <mxGeometry width="50" height="50" relative="1" as="geometry">
            <mxPoint x="390" y="200" as="sourcePoint" />
            <mxPoint x="490" y="50" as="targetPoint" />
          </mxGeometry>
        </mxCell>
        <mxCell id="jwMBtuU9bVzpTwX1WS7d-55" value="" style="rounded=0;whiteSpace=wrap;html=1;fillColor=#fff;" vertex="1" parent="1">
          <mxGeometry x="10" y="640" width="260" height="160" as="geometry" />
        </mxCell>
        <mxCell id="jwMBtuU9bVzpTwX1WS7d-57" value="" style="rounded=0;whiteSpace=wrap;html=1;fillColor=#fff;" vertex="1" parent="1">
          <mxGeometry x="10" y="160" width="260" height="160" as="geometry" />
        </mxCell>
        <mxCell id="jwMBtuU9bVzpTwX1WS7d-58" value="" style="rounded=0;whiteSpace=wrap;html=1;fillColor=#fff;" vertex="1" parent="1">
          <mxGeometry x="10" y="400" width="260" height="160" as="geometry" />
        </mxCell>
        <mxCell id="jwMBtuU9bVzpTwX1WS7d-59" value="" style="aspect=fixed;html=1;points=[];align=center;image;fontSize=12;image=img/lib/mscae/Docker.svg;fillColor=#fff;" vertex="1" parent="1">
          <mxGeometry x="150" y="670" width="98.78" height="81" as="geometry" />
        </mxCell>
        <mxCell id="jwMBtuU9bVzpTwX1WS7d-60" value="" style="fontColor=#0066CC;verticalAlign=top;verticalLabelPosition=bottom;labelPosition=center;align=center;html=1;outlineConnect=0;fillColor=#CCCCCC;strokeColor=#6881B3;gradientColor=none;gradientDirection=north;strokeWidth=2;shape=mxgraph.networks.pc;" vertex="1" parent="1">
          <mxGeometry x="30" y="675.5" width="100" height="70" as="geometry" />
        </mxCell>
        <mxCell id="jwMBtuU9bVzpTwX1WS7d-61" value="開発環境" style="text;html=1;align=center;verticalAlign=middle;resizable=0;points=[];autosize=1;strokeColor=none;" vertex="1" parent="1">
          <mxGeometry x="110" y="770" width="60" height="20" as="geometry" />
        </mxCell>
        <mxCell id="jwMBtuU9bVzpTwX1WS7d-62" value="" style="edgeStyle=orthogonalEdgeStyle;html=1;endArrow=none;elbow=vertical;startArrow=block;startFill=1;strokeColor=#545B64;rounded=0;entryX=0.5;entryY=0;entryDx=0;entryDy=0;exitX=0.5;exitY=1;exitDx=0;exitDy=0;" edge="1" parent="1" source="jwMBtuU9bVzpTwX1WS7d-58" target="jwMBtuU9bVzpTwX1WS7d-55">
          <mxGeometry width="100" relative="1" as="geometry">
            <mxPoint x="40" y="591.5" as="sourcePoint" />
            <mxPoint x="140" y="591.5" as="targetPoint" />
          </mxGeometry>
        </mxCell>
        <mxCell id="jwMBtuU9bVzpTwX1WS7d-63" value="Git Push" style="text;html=1;align=center;verticalAlign=middle;resizable=0;points=[];autosize=1;strokeColor=none;" vertex="1" parent="1">
          <mxGeometry x="140" y="591.5" width="60" height="20" as="geometry" />
        </mxCell>
        <mxCell id="jwMBtuU9bVzpTwX1WS7d-65" value="" style="edgeStyle=orthogonalEdgeStyle;html=1;endArrow=none;elbow=vertical;startArrow=block;startFill=1;strokeColor=#545B64;rounded=0;entryX=0.5;entryY=0;entryDx=0;entryDy=0;exitX=0.5;exitY=1;exitDx=0;exitDy=0;" edge="1" parent="1">
          <mxGeometry width="100" relative="1" as="geometry">
            <mxPoint x="139.5" y="320" as="sourcePoint" />
            <mxPoint x="139.5" y="400" as="targetPoint" />
          </mxGeometry>
        </mxCell>
        <mxCell id="jwMBtuU9bVzpTwX1WS7d-66" value="Check Out&lt;br&gt;" style="text;html=1;align=center;verticalAlign=middle;resizable=0;points=[];autosize=1;strokeColor=none;" vertex="1" parent="1">
          <mxGeometry x="140" y="350" width="70" height="20" as="geometry" />
        </mxCell>
        <mxCell id="jwMBtuU9bVzpTwX1WS7d-69" value="" style="shape=image;verticalLabelPosition=bottom;labelBackgroundColor=#ffffff;verticalAlign=top;aspect=fixed;imageAspect=0;image=data:image/png,iVBORw0KGgoAAAANSUhEUgAAAZAAAAGQCAMAAAC3Ycb+AAAAM1BMVEUAAAA0NDM0NDM0NDM0NDM0NDM0NDM0NDM0NDM0NDM0NDM0NDM0NDM0NDM0NDM0NDM0NDO52TkZAAAAEHRSTlMAECAwQFBgcICPn6+/z9/vIxqCigAAC5tJREFUeNrswYEAAAAAgKD9qRepAgAAAAAAAAAAAAAAAAAAAAAAAAAAAAAAAAAAAABg9u5zwVYVhgJwKCIikLz/y57ey2yNBt171vf73tPWSDMGAz5+4+hSyCEvtcrvel3zPDoZ8Gmp8haueVAq4FLpsklbItkCPzfZg9fkyAi4uYlCmcgAxCJaPXuCc6Uuh6yR4DQusxxWI4F9HIhkuMSiYBQJxC6nKo70wK1yNp5JC2YWAy2QBrgqRjLtBxOLmeppJ1jEEk+0B/gmxhbaDiKLuepoI0gyQg+0CSwyBm9KBIoMk8ge8rBPBHm8fiLIwz4R5DE+EeRhYSI9rHex+h0oyTXY0z9AlKs0R38Bz3KZlf4CTS6USQ8TuoVI8JtJrsWO9DCBYBqxVuVyiX6AWdSwGzHgWG5gJfhmlUNarXUptVa++FALW3Rec/T0i5CWJlrdEXzWRaUvgf7FTYVHbw9xpsgl0BtSHTmvY0bn7OgBX2S/QkDZIg5tJB55OLb75iY2PCLmD0iPpo+fxwNi+0laaHhEDJdYnGgvV2QXhz2IdTlCxl7EaJPewoCnsOMUy74UIeEYfiNnmIciERz6zobzhyIRrHybXR76GoqZ3i0/cGSvslXDiDViv+Y6xqyH2shXRxFj1nkjVhxaildxbPLAMuTYDMcnZXBVYTqn2gHnWHnMnIW2G3zKA+KmpcpnveZwzrzecJClfkBCkV/17M54ROh9Cnz0DMsX+RNn9SyCjxPCKo9wcXsblrZweJTMBCeu0jge3YsUgv2K4uQrYFa/ZhcTDi61aS9IuqXygvNFG55151ETllk2Vu3xB16sm4jq6pGGda+Foj4hLDjNMuD01SMZr0QMJP3SNV4VCN6kRAQyTDswMSMQA0cOpLBVvyqQikAQCAJBIAhECYEsB/5fpj2g6itCHZa9VzVoDNgYDjPpR53pokBQY1dwuDjQoh2xaMX7EAte/TPeEYiJrHxAHOrfbbiu+xFPKHIwEnSVbgWf7FhJqm8SGScnFyTCQbmBwao3PhIUF3w3p3v3i6KTxMdurA1t57+mw4fRb5mO925NXf5QwwmtswLObN9QaHOHXi5R/5kp5vSTWl24KdfPSo6HyrkwpzfZpoxuuJlxQjhkSM8ndfLAvVN1bGsVRsn0kGVoRZO/R9aR1xbMaIP5UBrY5S2gl/KpTUnLuIZyK74UHDCO1LN/J3R+nwa05sKdnzymcW+R7QqqR8wTKbJDRPXIZmlAHg1VumLbdNpVu9BxqWRxRKZX7KDsvYtY3iEyM+6W3CdZXsfpK+65362L1T1tLvP+tCHJbnVTJKmL4AFRaGIQiZs7bidWiqLRZ0//FQuLQic4cr99y+Hft3d30Un0GXjRqzlFT9+EmEsTtUrwVZZbCPQNdDGgn9EhyvUawU8LBqybaRiw7iWwXKrS7yCJBX3hFxS5UCT4k2v3mkDAsVykEAyf2BW3XEFCHkjkzXIvSMjjZhLyuJmEPG4mIY8XSsSi6g4iY717L6HLAMXRjeBcK9ON4BUiT7QLTCyGmqedwFcMVzczi40e6UbwkGRHoJVYTlYDHQBukTP1RAeBX+UsnB0dB7EijpuJBXHcjC98bO5wBOdyqYlSiQQW/NJltxUPh6WwNKRxMz6VLhvUJdIg4Kdc30illTnScBBjzmutTb6ptZY8R0/HAAAAAAAAAAAAAAAAAAAAAAAApJWFK4omieb6RaAr+SZf9UB3F+acHNm5w33Pnp+m2ZBb5bNsHki9S9N0dk9xk878yoGk5+lQEOUbdi8cyCq/6s/RT2Z64UC6/OY57iHOLxyI/O45uu2nFw6EDQIxn+78CwdSDeYQ6wXh8n5WWeUZGveV196H9Ge6J2Zaag702oEExtWh9oGoEuFb5IFAyOUuIn3x9AMCwcf8udYm0j6yd4bLkaM6GL1gwBhj6Pd/2ptsVbw9Vh+DcaeUbI3+tifzwQEkYyFyjt7e2Q5OsH3uYsr58ag5L/PUBYSFlk+ha/Tm2sD3cf1sY8k5hulnl7sox3u1XzIJ+Y/PFdOaP83LW9CjqDtzKGJWkx8BIoXOvYPHzoeSHmUBJkt+sp9TXiw7vhTa/fnm/hWB/dvi2FGZqURzEcjrakKr6xly6fHCttB8M1TBAZanBpD8LNpm2LQ28QFW5ytAXEGhtlmriwvODgDRK1EZ+4GECv/Q1yvXTSAQs7aFks1nElbzk4BM26WC3gwkUQcRcIj0CUjruoVseMzlhoRJHQiM3rZaBJLEiJWdAZZ6gIRHv1Aec2RBHwg0M38YN5SBHHiUPMGlFSXnXIkIAAGhGwgduesyMBA1HjV5u5cXq9BQADL/EYc6uERk298+3FIkEQYihJovoSsTYR5MRBnIVLFetAlFbngSkGdLlr5OJ8uxXTwH4h4sNFbIEIEpSub1gZgC4efe91+29QLJlv7EamUU+9RX7gyIqSIEgKA6U8JC26pVB7KKUAqd4dIH5IDVUT/KAKyaEyBZhFIYgMXx6zKyNhAvl3Ce7hMD4SW8iF/YiSUGEq4ItSIFUdi2xxU0nHSAFNlMbmhGIMwjyl9OiDgCYuplobslsTAl97WxVcRvRhVIEA7itKFTE4jDy+6nnit4VgISD0+wPxQy7OlFMOGIJKoCKRCZQCDmW0AidvXc48kEEMG1nAsVU0RMEJHKbhJMEQ0gvjMF0cZ/LLSWrA2J51Y9+PhpswEg4Tj0waL0IhZuBUVisyKQdejLHANxOGTdvS+GGRcsWLSimKNihhGRTREIdNcAEOC6iI4cAmLAEbE32kQSGf4B8YxVA+KF+ntAPK5Y7h6QwDOZggi7s+zYn5/EmqUDJILDHQRSZfeMJWIKIKkjPQoe9dJhtxatoAYkwzweBJLwJEm6CSSP3wEauxJCjXsyPR9SYGQPApnxwXATyOO6ZbmN1btyKgGRzb4LxPGDCkCGu1UfSHoTEIth9c2h4h4D9qJbt18CJL4JCLRJFwhs5f4F0m9/gSz/RSBVvPMpAFF26vygvafMfHVy7rfwolvrLwFSvh3Im6KsfPeo4KQPpOu/NN8FxI95KUGgjHdLxK/L+kB4m+G7gEwQbzYN3u78zSSn0vNUdVpAdhnrm4DwYW97D8g8fhbWysQraUZkJOsA2cXa7wKyDgVyAsh0o7hK4c8hkHk8qQHZY8L0XUDCWE8KL176nRF3Ni4GXgTMWkBmmiLjQGAtWO4BiePnxSdIIcY800URiIFXJkg7qbYNhD40TF3ebAEglkc4Cd1tAyKU+281gIj+il1PhctALKzelC1yACIlzF1pmE7AptNBZhHbxCpARAwSOha2appAGOZmOqobBgLSJTS9Dm+LyAXfedkoshedbuZibDc0iEeuALGViYj04Y03dZa20CST2GkrrKxxDnHZ4OCQIhDDKcqimbnHqQubIZt7N1fl6JRATG28b5uEodT66LZqFIBQEJLtafJ7tReBiIZVf763Ec+2PR0e0BRCDcV6bfMKWyecq1+jgXPEu9YBIKYeT71Dam0+34eOvUIdj7qWLT/hSFuiygo+QUoTAQGbKtRcmGIRSZ4MBISK+hCB/WDLVsXNRc5tzUv8sJTJ2TEQJnL0qJ+WKyTdEhAQuslzgoNENsNAtIjwXB4AQkS4MxgIC5U8BomsRm/7nf0In+sfANJ/Sjybrm+ZsSXUowRX22NOHwgXEOF32zYQDkrJYu/HZV/bQsFsvoaSgSgXO6lxfHOxj3meaHORyYLQ0WInyfxPHwhEjnDmnIGsnaKDQCJCYQYCQiEUBjOxdkiA9AgFJFH0WJkN+ujdD/vu745hhfOXsEvoQegihG5CKCAJm5AANRWD8C8KNs1r2WGss33/0hhSfopb/bDQmMsO45pQG9IOpQ5Uu1Wg4j7sXSw4+V9VqHUf9gtYvNf+3x4cCAAAAAAA+b82gqqqqqqqqqqqqqqqqqqqqqqqqqqqqqqqqqqqqqoqfHkw2HjvZU4AAAAASUVORK5CYII=;" vertex="1" parent="1">
          <mxGeometry x="18.25" y="166.63" width="146.75" height="146.75" as="geometry" />
        </mxCell>
        <mxCell id="jwMBtuU9bVzpTwX1WS7d-70" value="テストの実行" style="text;html=1;align=center;verticalAlign=middle;resizable=0;points=[];autosize=1;strokeColor=none;" vertex="1" parent="1">
          <mxGeometry x="165" y="253" width="90" height="20" as="geometry" />
        </mxCell>
        <mxCell id="jwMBtuU9bVzpTwX1WS7d-71" value="ビルド実行&lt;br&gt;デプロイ開始" style="text;html=1;align=center;verticalAlign=middle;resizable=0;points=[];autosize=1;strokeColor=none;" vertex="1" parent="1">
          <mxGeometry x="165" y="200" width="90" height="30" as="geometry" />
        </mxCell>
        <mxCell id="jwMBtuU9bVzpTwX1WS7d-74" value="" style="endArrow=classic;html=1;exitX=1;exitY=0.5;exitDx=0;exitDy=0;entryX=0;entryY=0.5;entryDx=0;entryDy=0;entryPerimeter=0;" edge="1" parent="1" source="jwMBtuU9bVzpTwX1WS7d-57" target="jwMBtuU9bVzpTwX1WS7d-19">
          <mxGeometry width="50" height="50" relative="1" as="geometry">
            <mxPoint x="516.75" y="571.5" as="sourcePoint" />
            <mxPoint x="566.75" y="521.5" as="targetPoint" />
            <Array as="points" />
          </mxGeometry>
        </mxCell>
        <mxCell id="jwMBtuU9bVzpTwX1WS7d-75" value="" style="shape=image;verticalLabelPosition=bottom;labelBackgroundColor=#ffffff;verticalAlign=top;aspect=fixed;imageAspect=0;image=data:image/png,iVBORw0KGgoAAAANSUhEUgAAAWYAAACHCAYAAAAlSfOFAAAAIGNIUk0AAHolAACAgwAA+f8AAIDpAAB1MAAA6mAAADqYAAAXb5JfxUYAAAAGYktHRAD/AP8A/6C9p5MAAAAJcEhZcwAADsQAAA7EAZUrDhsAADDRSURBVHja7Z15fFTlvf8/Z5tzZslkX8xKIOxLQHYEBVcEq8V9ab1qW7W/1lq9trW/ettr+7PttVd7q/WqtbbSFpTNBSkgyiailQACQgghISF7yD4zmZmzPr8/zkyMkGRmwmQywef9ep2XAmef53ye5/k+34UhhIBCoVAo8QNLXwGFQqHEF1SYKRQKJc6gwkyhUChxBhVmCoVCiTOoMFMoFEqcQYWZQqFQ4gwqzBQKhRJnUGGmUCiUOIMKM4VCocQZVJgpFAolzqDCTKFQKHEGFWYKhUKJM6gwUygUSpxBhZlCoVDiDCrMFAqFEmdQYaZQKJQ4gwozhUKhxBlUmCkUCiXOoMJMoVAocQYVZgqFQokzqDBTKBRKnEGFmUKhUOIMKswUCoUSZ/CxulBdbW1Y+5WWliI5JQVulwu7du7E4ssvx7GjR1FTXY158+fjRHk5/H4/ysrKMGXqVNhtNqSlpaGzsxMZmZlYt3Ytpk6ditbWVuTk5KC8vBwgBNcuX44d27en1Jw+nbrgkkvyGxsbx3g8nvyO9vZc2e9PB8Oku91ui6qqLBgGoijqDofDpypKc0pKSpvVaj2dmpZWk5SUVHn40KH6vPz81quuvNL91ttvo6CgAIos4+jRo7jiyitx4MABrLjxRnS0tcFqt6OuthaiKKK0tBTFxcXYt28fFixYAABoaGjAwQMH8M2778bsOXPAMgyampqgqioYhgn5vubNn09bMYVygcFfqA/GsixESYLVZpve2NAw/b2tW+dWVFRMaW9rG/fKn/6UoaoqdF03xY8QEAAcx/X82SAEuq6DZVkQQsAwDDiOg8ViQWJiYm1XV9dxVVU/97jd+20220EQUk4IoS2KQqGcNxeMMDMMA57jwLIsBEEY19LScsPhw4evaW9vn+h2u7M9Lhc4ngfP82BZFjzPw2KxhH1+QggIIVA1DWfOnMlraGjIO3T48NXOhARUVVVV2e32z7Oyst5lGOZdlmWbeZ4Pa8RLoVAoZzPihZkQAkmS4Ha7HU1NTfM9Hs+3/7Zy5bUejyfBMAywLAuWZWF3OPo8NhIYhgHHMOBM8QcAqJqG2traQgCFFRUVXzt69Gjz+AkT3mxubv6LheePSJKk0pE0hUKJhJErzISAZVk4ExPtpaWlN+zbt++ew4cOXaWqKiyiCJ6PzaNxLAvui5E3097RkfXh7t3/Z39Jybdmz5nz9rz58//sdDo/0DSNtjYKhRIWI1KYGYaBIIpoOXPm6x/u3v3Q0SNHLvf5/bDb7bDZbBjOESrPcRBsNmiaJm7/4IPbSvbtu37y5MnvLrr00j8IgvAxNW9QKJRQjChhZhgGoiTB43ZP6Ghv/9mHO3fe4pdlUbBY4HQ6e+zAww0hBBzHwel0QlVV6759+249UV5+7Zw5c142DONpnudbaNOjUCj9MWKEmWFZcBwn1NbU3LNl8+ZfdnR0ZFksFlitVgCIC0E+G0II+MCCo8/nS/jg/fcfq62puXpMUdHP7A7Hpm6Ph7ZACoVyDiNCmBmGgSAIhWvWrPnN9u3bb2NZFlarNS7FuN8XzXHgrVaUlZVNq6urWydaLP+z4JJLfgPARZshhULpTVwLc9B3mGGYyzZu3PhSfX39BKvNBp7jRpQo98Zut0NRFGn9unWP19XVzV60aNH3WJY9QZsihUIJEtfCLEkSdu/adefqVauea2trS7Xb7WAYZsSKMvCFecPucOBf//rXFZ2dnW/n5OTcJ0nSJ7Q5UigUII5zZUhWK0pLSx966aWX/tzV1ZVqs9kuqIANhmGQkJCAysrKCQcOHFhfVVW1VJKkEd3pUCiU6BB3wswwDBx2O3bs2PH4tm3bfk8Mw2qxWC5IwQoGx3R3d2c/+8wzb7y3devNCQkJNGKQQvmKE1emDIZhYLPZsH79+h89/9xzvwl6NFzIo0hCCERRhMvlSnziiSde4XlenT59+juEEGiaRkfQFMpXkJiNmBmG6XdjWRYWiwUOhwM7tm+///fPPvtrwWLpCXv+KmC32yH7/Uk//tGPXt69e/dlDQ0NMAiBxWIBLwj9bhQK5cIjZiNml9vd59+zLAuv14vqqirU1dYue/XVV38viSIfyvMiGEwSFPd4JnivLMsOuI8oivD5fJnPP/fc3+69775lqWlpxySrFbqu05ZKoXyFiNmIWZblPjdFUaAoCupqa6e+/PLLL3g8HpsQwqZMCIGiKGBZFrphwOfzQZZl6IYRNyKt6TpkWYbf70cwmVKoHMtBm3NjY2P+e1u3vsiybJIoigPONigUyoXHsNuYRVGEoij2je+++/u6urpRiYmJIe2qmqbh6quvXq0oyueKoiQYhjGhqbl5QnNT0yS3ywVpmHydGYaBqqrw+XxITk6Ws0ePPpqRnn5cFMVTPp/P5/X5ln5+5MhloRYz7XY7Pv3000Wr/v73X910660/tAgCHTJTKF8hYibMoiie83csy6Lm9Gls2bLlJ/tLSq5ISEgYULAYhoGiKEjPyDiz/LrrHlm1atWZcWPHYtacOTh86FBBQ339LL8s37i/pGSF1+u1cjwPjg1/UnD2tcMdkTIMA1XToGsakpOTm2+44YZ1oiS963Q6D02YMOHMwQMHkJScjKKxYz989JFHPjIMgxno3CzLIsHpxIYNG+7neP6jxYsXr9F1nS4EUihfEWImzH0lpZckCRUVFYtfX736Jza7vadayED4fD4UFxfvcLlc7UVFRdB1Hd0eD9xu9+m09PTTKamp79jt9t/V19V9/9SpU3e43G6bIAjgOQ6GYUA3DCBQnQQAdF0Hx3EQBAEEAILXZxiwABRFgREwkfREIrIs2MCipappUGQZ2dnZZ0aPHv1qRkbGny5ZuLC6tq4OzU1N8Hq9UFUVowoLkZWVdbywsPB4+YkTkwbKgkcIAc9xkDXNsmvnzqfnz5+/12qz1UXSyVAolJFLzIS5s7Pz3IvzvGP9unW/kWXZYrfbQ4pycAEtLzd3f2ZmppackoK21lb4fD4wDANN0yD7/RrHsodmzJjx7csWL37tvffe+1n5iRNLfV4vBEGAw+HQJau1OTkpqVWSpJa8/PxWRVHOtLS0tKampCiSJOkEYHxeL9fS2iqmpaWl8xyX0dzcnNHt9aa5XK502e9Pd7tcUM0Rsnf+/Plrr77mmt82NTaeaKivh9frha5pYBgGsqKgoLAQ9fX1aG9rc40dN27fsaNHJ4V6XyTgkVFXV5e/fv36//f4T396z5gxY0DzOlMoFz4xE+aKkye/+AMhsDsc2L1794NHjhyZE8wQFwrdMCBZrSQzO/tkRmYm/H4/nE4nGurrexbYAMAgBIZhQFXVj5YtW3bD5Zdffu/BgwcvT01N/byrs/NoekZG9fTi4jpRktpmz51L9peU4NU//xmpKSlfup7X68UVV16JSZMno7a6mmtobMwsKyvLa2psHJWUlDTD7/cXOBIS1i1ZsuRNl9sNwzBgGEavxzTFNS83FyzLwma16m1tbSdZlu0ZhYdClCR8/PHHt1VVVb0xafLkrarbPWSLfmPGjBnsoXkARgOYCmA8gEIA6QAcAEQADAADgArAD8ANoANAPYDTACoAVAJoAtBMP0tKvFFZWRnT68VMmHPz8nr+32KxoKmpqfD9bdseMAyD5cJcqCOEgGNZjzMhoSUhIQE8z4PjebScOdPvMZqmKfPmzXvZarX+xe5wqLt27ICiKPD5fDAIgbe7G7Is9yl2DMNAlmV4u7vh9Xp1vyw3KIrSwHHcp3PnzVvDMAxfWlqqdXd3n3Ns70KvXV1dIITAK0lQVLUuuPgXjsAKHIcul0v628qVj148Y8Yeq9XaHSej5mQAVwe2S2AK8vnQDaAMwH4A2wNb+wX0bWcBGAVgoIVcDkAjzM7qfL7pSQAkAP19VAzMTrIMgG8EvDsngHEwvcj6eyYWQBeAkyHe8YggZsLceyTJMAwOHz58V2VlZVFSUlLYi1rEMJCcmipvevdddd3atT3CxjAM7HY7UlJS+hQ7n88Hv9+vclGKIiSEwOfzAYDW+7l6P6vT6URuXh7SUlOhBezZVqsVdrvdx7Iswr0LAsBmt+Nfn3xy1d69e69evHjxW311BDHEAuA+AN8CMDPwkUcDe+B8MwE8AOAggMcBvB/BORwwOwwvgLY4+s6sAJ4C8DWYM4f+fn4OwAEA92DwM4dFAFbCnKkYA4iYBuDnAF4dATr1AwDfC7S1gYTZA+A2mJ37iCZmwnz6tDkI4DgOsiznrl+37gF7mAt+vfHLMjNx4kQ2MzMTqqr2/L1hGLBYLKitqxv2l6qqKoqKitDZ2QmX64t0y7ppA494BU/gefh9Pqxbt+57ufn5my2CIAc7hImxfbRZAJ4GsBjRE+T+uDhwvXCEeR6ABwFcCiAJ5ijwEIBXALyL4R9BWQAUwTTvhGIczA5msMKcBdO0FA55GBnkB54rFBkAUkbIMw1IzIR5VEGBeUGex6Z//vP209XVucFyUOHCMAy6u7tt06ZNkxYtWoTeI8eA4GPd+vUDmjaGmoBtG57ubqiBBcCel20YkFXVqWlan+6D/UEIgcPhQMm+fZeXlZYuSk1N/UA3jFg/2p0Afh9o/LFABlASxn4PAvgdTDELkgwgG8AyAC8A+DHMUfRwQQLPEw5+nF9HEsmxygjRKTmCZ78gVsdjJszBsGSO56Xdu3bdI4pixGYFlmWhaZq1sqIiNzU1NWhO+NK/F0+bhjNNTTBiLFxBe3R6ejry8vPBMIzpItjL/c5qtcLQtFGKokCSpIjPr6oqs3PHjvvvf/DBD/x+fywf73sA/hum3TJWVAIoD7HPCgDPARBC3HsXgJ9dCB8s5atBzIS5qakJHM+j9rPPlladOjWO5yO/NMdx8Hq9qKqunpuekbHG5/OdMzpgWXZYkulrqopxY8di3PjxpgAT8qW5Psuy8Pv9juOlpXMCVVkiukdCCERJwuHDhy/3er1jU1JSTsao8/kGgD/AtH/GknIAtQP8ux3AkxhYlIM8AmAVgFL6yVNGArEzZRQWIiEhAZs2bbrR5/MJdrt9UOfRdR01NTXFCQkJVkWWz61mGhC8BKcTJIajZk3XkZObi7q6uj5XJ3iOg8vlSq46dap4MJ0SAHAsi46OjpQDJSUr7rzrrqfPnjEMAbMB/BdiL8oA8Bkw4BrpPJh223CwArgOAwuzLXA+McR1GZgr/51UPihDRcyE+V+ffAKe5/NLjx6dO1hhkmUZiUlJ7tvvuOO/p0ye7PXLfZuegvbmLZs3Q+gj4nAoYFkWbW1taGtr6zOLHCEENru9ccVNN/36z6+88qymaQzHRaZ3AXs1c/jw4asuWbjwma6uLn3GxRcP1SPZYIpy9jC0Sy9C25cLYYpouBSG+Pd5AFbDtE/3Z6dlYHZS38XI8GagjFBiJszF06djz549s2tqakYNJo+wYRjQNI187/vff+qSSy7Z5PV6+xXdwZgKokHQjt7XdQkhUBVFmzd//vOnTp26eNvWrd+0ORwRuzbwPI/KysrJ//r00ylWSTo8hI9zN4AlUThPF8xgEgWm+xYL00vBBtODoq8fsROmu9xAeHudLxxCGeUlAIn93M/Z2Kh0UIaSmAmz2+NBc1PTPL/fb4nUjBFMXjRlypQ9F1988fP9BYT03j+WKTGDoeKZWVlwOBx9XpvAHFWLoqjffscdT5QdP35ZU2NjfqQjepbj0NbWlgVCZs6eO3eohDkRwGODPLYDwCcAtsH0J62DKbTaWe3ODlOYc2F6/c2C6cOcD9OMEcpd7ADMCMLkMO8rVLFbHWbQRTgLnDQunjKkxEyYjx496jx16tTMoIhFMpo1DAM8z+OapUufamxq8ra2hY4dCOZqjgUMw0DgeSQmJsJut/dpoGTwxYg6NTW15qprrnnh1Vde+S9LhN4pHMvC5/UyNadPz6qprv7LED3SNxB66n/OzwTgDQB/RGgRBMyRdANMu++2wN85ASyAKeahOAHgbQD3hrHvYQBb6OdOGSnETJgnjB+f8Y+VKydZIhwhMgwDr9eLmbNm7XYkJOzo9njMhPgDHENgBmXwPI9I7biRous6UlNT4XQ60drSEtYxbpcLlyxYsHLzpk2PtLe3Z0Vicw/OBurr6ye5XK4kRH8RygrgZkRWRMEL01f4fwGcj/3IBWBrBPv/DMBkAHMG2KcRpsucm37ulJFC7EpLuVyj2trbM3hBiNhNjBCCxZdd9npuTo4Wif9uZmYm2tvbh7Q0E8MwMAwDHo/HzH8R3kHgef7MoksvfeeN1asfcIZRHKA3giCgrq5u3JgxY1IRfWG+GMD0CPYnMM0eLw5D+22E2Yn8Dma4c2/brwzTJPLvAD6mnzplJBEzYa6tqRkn+/1MpPZlRVGQlpbWmV9Q8ElGRgZkWQ77WJZlexIIDRWEEFhtNvA8/0UwSRhYrVYyderU996UpAd0XR+wHuDZ1+N4Hp2dnVndXm8uzECMaDIfpu03XF7B8IhyT9MCcDuAhTBDxTNgjrw/BfABhiZJD63pRRlSYibMdXV1RcFUl+EKZbBUU8GoUSeqqqubTpSVRTZPJgQ8zyMtPX3IviRCCNpaWyFKUkTC7PF4oGraidTU1Nb2tra0SEw8rBllyFScPDkKwO4oPo6Igc0CZ9MA4Ddx0pY/CmyxgArzyCVo24zrDHQxE+aa6uqLIvVfDqbGdNjtNQ6Ho8M7iAoeHMuiqbERRpRHzcGcGDzPY+uWLWGPeFmWBS8IgBnJ15WaklLf2tKSFsm1A6HpcLvd0fYxToOZUzlc/gGgegS0YQP9Z1oLoiB8+zgzwHXDuVa8w2DgFJvBjikScWMxcHY4BtERy94eM6kwvX3mABgLMxFS0NzVDdPzpwzAhzD95mXECTETZkXTciI9hhACYhi4KDu7a8qUKarHHfn6DYEpzhzHob29/bxyaBi6DsMwoCgKMjIzMWnSJMh+f9jeHzzPo7m5GZUVFbBYLLDZ7d3t7e3tx44dG5TfdXt7e7SFORPhe2N0A9g8zO332zCTGA2USpOHaYu+D8DZ2a1sME0fuQBuQvj+yY8BuAvnLpAOdK1Ycb6j+SKYs6AU9N/BBK/xIoANYZzzJgD3wxytDpS2sxlmis/WQd67DnPWNwNm6tjlMAOk2DCOOwTgJQCvB9r2sBIzYe7q7HQOKuKPYaDrepvP68WgE/cE8jWrqgqLWZU7IoHWNA26rkMURdx0880YN24cBEFAsPJKuD7ToihC1zRsevddGIYBURR9LS0tHYNJ6CQIAk5XVQ0urr1/xiD8aLrjAI4Oc/tdDtP3ORQEQAG+EMsFMEO0pwCYFvi3SCgIcUw2Bi/MOs4v69v52tSnwlxQDYcahCfMy2EWVAiHZzB4YQbMvNeTYPrJhwsXaEevAPg6gEcROoHWkBIzYfZ6vRYmQv9lwBw1S6LIJyUlnZfrG8MwSEtLQ15eHkpKSuBISBhQ6AkhcLlc8Pt8SM/IgCAImDhxIoLVqgkhUJTIvh9ZljFp8mQsXLQInx08iOTkZKa2pobTdR1ChNGQhBBohuGI8s80OoJ9j2P4k9GHK0IKvjxNfhpm1ZWhQMX5TcltAZHIHMT3qQOYEIX7VxBeBGS4U/9wfyeC8zMDWWDmdzkflsMcoNwM4NhwNeyYCbOm69xgovECdfMSE5zO84rmI4FzSZKEBQsWQJZluFwuM9jFMHoEt+eaoojHf/pTjCooQEF+PnKys6EoSo8f8WCfpbu7G5csWACb1QqW46RTp045FUWB1WqNqNPSdR2JiYmpUf6ZciPYtwwjFz6O760QZqCOjsGZJYQ4fraRwgQAfwVwFcxAKNpAe8OY/r6oqq4Wd+/axfh8PnI+58rKykJycnKPGSMpKQnNTU3IyclBcXExurq6oKoqNE3DrbffjuLiYvi8XtTV1Z1/iDchYDkODoeDSXA6yenTp+FyucTWlhYbP/iSV9H2DsgKcz8NA6fkDGKHaS4YyLYYDmUwQ72jRTyHVLOguTjigdkwA5h+PBwXj5kwcyw7qOkdIQSyLDsURbGoqhrxqqmqqmYuY1GExWJBsEI1YHpWBH2Ily9fDlmW8c5bb6G8vBxP//a3UQ1M0TQN2dnZzB+efx4utxsVFRXo6uy0eDwex2BMNDzHoaurK9qmhHDL8sgIz4b6NZgLRAOt8A9EcBX/GQC/olpBiTH3APg7gM9jfeGYCbPNZpPb2trAh1kROwghBIosX9Tt8SR2d3dHtKBiEILx48ejuroa/S08Br0hNE2Dw+HA9BkzcLq2FrbAwt459wOzynekI2jDMCCJIrN+3Tpj8uTJuOaaa1BdXZ2w6h//yOx9H2FjXt8T5Z8p3AUTBeFN8bIRWbBKf4yU2nSUC4t0ALfiQhbmpMREf3V1dUTHBE0ZjQ0NeRlZWYmpaWlndC28WShr1geE1WZDc1MTEhMTQx7j9XoxacoULFi4sF+vDZ7jsGHDBrjdbkTiZUIIwaxZsyArCjiex/QZMwAgu7WtLTXSMHXAnAkU5OdH260nXI8MA6HTaALRqykX7TpaCUPY1AUMT2EBypdxwUyG1Rj4fyvMzIWTIjzPVTBrXbbH8uZjJsxWm61+MB4ZvCCgrb09W+D5vJzs7JNyCJe53lfgeB6RhDsbhgGbzYbc3Fxo/XQAPM8jLS0NiixDUdWwPUUIIUxySorBcRxaW1rQ2dGByoqKKbLPx9gdkTtXEEKQmpbWNEzt4XxXz4ebtwMfWvAZVJheEFMRnqieBFDVx/tiA+dtHNGSNrIpDfy+OwEcwZdNbhkwzWtPAgg3rqIYppfGhSnMGVlZtYOx2QZKMjHVVVXzOY7bEcqXmed52Gw2lJaWIic7GxlZWRFdLxjR158w67qOGRdfDNFiQU1tLWRZ7okADGHeIMFz+/1+CILAHjt27BICDKr+nyAIcDgc9VH+mZgI9hvJYclPwkwxGnzpOoArAPwt8PeheAHAX3Bu4AID0zUsbiLIvmI0wgws6S80/wzMyjMdAF5DeDMnCaY4l8TyQWImzBdlZZ0abFURnudRsn//0mnFxf/lcDi0vs7BMAxEUcTJ8nIoioKqqioUFhYOybOoigJRFOF0OlFRUYHFS5bgZHl5j/sdgC+53wGmmBqGAYfdjkSnEz6fL/PI559fJkXoJgcE8lMLAgoKCk5H+9HC3I9FZGWd4g0D52bliySsVAZNIxqPeAGEM1h5E2Y04p1hnndirB8kZsJcUFBwUhRFGIYRtmkB+ML3+Hhp6VyWZYvT09MP9GX/1TQNroC7m9Vmg8ViGfKscsERcHp6Omqqq1FXW4vZc+agqakJmZmZEAShJxseIQR5eXmwShJEUcSatWuvPdPcnG6zReYZFUzslJqW1paTmxvtEXO4NmEegAMXFgLCnwXEtZvpV5hg2bJweAfALQjP73tMrB8kZg0sOSWlKikpqa29vT010mT5LMvC4/EImzdvfuDhhx++3+P5whmB53lIkoTm5ma88Mc/YkxREebNnx+zF8gwDDRN6xFqQgg4jkNOTg6KiopQWFjYk4xJVdXg/tKHu3bdxw7SN1rXdWSkpZ1oaGhojfLjhLuYKMJMeBQ37esCoh5mrooGRB4sogK4FMAP6WsMSQnMyNVwbJ2Zsb65WGaXO5OdnV3a3Ny8KNLcEEE/5L0ffXTTVVdd9dKkyZMPCjwPVVVx6tQp1NTU4MSJE3A4HBGNxocKSZKw9+OP0djYiPHjx39JsB0OB9auXXvzoUOH5gli5NaAYAdQNG7ccRDSEeVbD/d8FoRXPbsepsng7B6IBEQn2rk+LgTaAawF0DLI4xVQYQ6HBoQvzAmxvrlYjpg7CkaNOvzZwYOLBmtnbmlpSXlzw4afz5kz58aEhATD4/HA5XKhuroapaWlSHI6EQ8E8nsAAJ595hlcPHMmbHY7OLMOYfbfVq78ka7rnDSITsQwDAiCgIzMzP0ZmZnR9oyIxDQSzvRuA8yiqTy+7DCjwcxV8XeqD+fAweywBivMtLMLDxnh53qJ+XpKzIaXF8+ciWnTpv1LlCRdG2REnc1ux86dO29Ys2bNDw8fPozy8nJYLBYIggBRjL+1KEIIOjo64Pf7oSgKNF1n169b96tjx45Ni7SSSxBN05CamtqanJT0WX19tE3MEeVWnoDQFaUNAKdgZuo62WurAhDthUsKJVLC9Y+P+TQ8Zhc8cvgwrFbrvqysrBpjkMLMcxxEScJLL730n3/84x9v2blzJ6QI7dWxhuM4MAwDSZLw3pYt/7Fly5b7HA7HoHNvEEJw0UUXHUtOTj7c1dkZ7duNpEzVRJjJxwdLfP9wlK8CJMr7RY2YCbNFEDCqoKBizJgxBwebg4IQAoHnoSpKwuHDh/9KCLmbAHFhV+73BbMsLBYL996WLb/csGHDL0RRNDPaDcKcEzxm7NixuwWLxe9IiLrpqxLhu4HlAJhHv23KCCbcCE0l1jcWM0XjOA6yopDi6dM3RpJN7ewUm4E0oFAVxb7mjTf+8tZbb/1GlKS0eBNnAnMRULBYitauWbNq/bp1/8ELAsMNUpQBM/eH0+l0L7r00jcZAGL0ZwtNMPMsh8tdCG3OoFDilXDbri/WNxYzNUtMTobNZsOSJUs25uXlVQZdx84h4FbmD5Rs8vl8fSakFwQBumFw27Zte3zH9u0bWZa9meW4uHDPYlkWVklKPnLkyA8+2rNny969e28TLBYI/OBvj2EYKLKMcePH7y0oKDiSn5+P/Pz8aN96G4D9Eex/KYAV9PumjEBEhBflCQxDMFHMhCw72/Su4nm+c+HChatee+21n5+9YEcIga7rGD9xYknRmDGvV1ZUuHJzcqacqqpaUllZWQyYmd2C+3IsC9aM9ptvtVpXp6amfpyZkbHSMIyNLMe1CYIQcWWQwSBYLOB5HizLMgzDFNbX199edvz4rTU1NcUMw/SUoDqfgBdCCBgAX7v++j/JikI0VR2KRyEA9gD4LsILtmBg+tx+CnORj/LVgozge09C+GluY16pJ3YjzKAoEYKbb7ll5aZNmx5yu93JvYUzGIiRkZ6+PTEx8fc5ubkYNWoUM37SpOtazpyZuWvnzrvr6+oKbb08GoKh2JqmCY1NTZdt3LTpso/27q0vKiracfr06e0+v/+AxWJptdlsHXa7XRYDNf/6Up1gROFAWeMYhmFsNhux2+2QJMnJ83xyzenTeQ0NDTNdbvdVK197baHH40lkGGZQ6UH7uSY8Hg+mT59ekpmZ+b7X641qruiz2APTi2J8mPsXwMwxcSfMGnBhPxYVpCEhlu81fhd3QjMa4fsnx9yDKJY1/8xWYxZGrb522bJXX/vrXx/rnY6TZVlouo6DBw8+qKrqmRUrVrxwoqxMrygvT77n3ntfXbBgwernnntu9YmysplnhzKzLNvTSto7OnL27t37zb17934zISHBl5ObW3GmpaXCmZDQMKao6LPZs2f/RTeMcz4uYhgwDAMNDQ39jm45jkt5//33f1hdVZXtcrsLmpubi3bu2FHg9/vBsiyGYpQeyJBH5s2f/6LP6/X4vN5gPuahoB7AewhfmAHTJ/mfAJ6AGeoaDjG320WReM4TEo2GEW7HE25EnB7D5w/33ucjfGGO+WwwZsLs6f4i2leSJOOyyy57bdu2bXe0tbbm9K53J/A8vB5P0v6SkmdVVb3s1ltvfXhMUdHfurq6crdu3frY9x966AfP/+EP/1teXl7cX54JnuMg2GwghMDv91tPlJVNPXzo0FSe5/HkL395lyMhgfSVPY5hGHi9XlRXV/ebzlMQhO6mxkZx/Ztv3meTJPA8D8FiQfBehiI/h8/rxdRp00rGFBVt8Pp85jXIkA7aXgTwbwASIzhmCszS73sArAfwMcx8uL0XCILJj5IAzI0zQdMRfirTKwA8j/CTPo0k1AjEbSaAZAwcMcogdnlVOIQXxp4KM09GuCP+mNe3jNlUJC0trWdzOByYPWfOsetvuOE1vyx/KSk9IQSCxQKDEHy0Z88NK1euXGez2fJ1w6ifO3fuOhjGZzNnzXo8weHwDxSoEhRInudhtVrBcRzuvvvu382bP3+1YRhgGebcjWXBcVxP0EpfG8uy/rnz5v3HVVdcsY1lGNhsNgQ9LYZClDVdh2i1ksuvuOIPVqvVxfM8LKLYsw0RZTDTI0aKFWaZ+j/BjPg7BOATmGL9CcyFxUMwK0I8E2eC1IXwAw6WAXgKZuL1C41OhN9B5QH4LYCL+vi3TACLAPwZwO0xuvd8AP8Ds+rIaPQ9sykE8CzCd/WsR2T+/VEhZiPmsz0SVFXFihUrXti1Y8eKqqqqSZL0hedKcGHPmZCA/SUls0VRfPHRxx67dXRh4fsHDxy4UVXVKcuuu+6VVX//+0OJSUkhBVGWZaRnZDRfs3Tpa2mpqfD5+p5FsyyL7sDi4kDud8XTp8sGIS+U7N9/uappPDdErnoMw8Dv82HxkiWbli1fvtbn9UbFZh0mT8Ms5T5+kMeLAEaNIEEKVroId3r+IwDXweyAWmGODBNhDnZ+jpEb2VgH08wUbtrD+wHMArAv8B5EmPknxsMcUce6msuVge0UzAFAI8xOV4CZKH8+IssWV4JhKHwQu2KsZ5kGiGGgID+/8Vvf/vYT//HEE+sNw2DPEUOGgdPpxCcff7xsx/vvP/iDhx9+xmq1tiqKYr33vvuebG1tzXpv69ZbBkpexDAMFEXBtKlTP+J5vry8vHwg+zG6urrQ3Nw8YGUSlmWha1rJ2KKi0uPHj0+z2+1RHy0Hs9GlpaW13H777Y/7fT6tv3JXQ0QzgIcBrMMwJHEZBhpgVv6OJJpxIvrO1bsWI1eYGwOilhrBMRcHtnhidGA7X7Yj+qXNQjKsq6qyLGPylClvLVu+/BWPu29XQZZlIUkS3nzzzcdPnDhRYBHFD0ePHv1Tr8+XvOTyy1dfeeWV/9B1XQ36O2u6bm6aBlVV0d3dDU3XkZOTc0hTVa2rsxOurq4+t86ODqiKArvdDqsk9btZLBZkZWU1FYwadSyYOS7aGIYBWZbx9RUrfpmfn18aTC169jbEvAezhPtIdosK+5UHPsJonYu+h5FPNYCtw3HhmI2Y+X48FUaPGYNHHn30P0+eODH3WGnpdKfTeU7lD4vFguamprSNGzc+cPc99/xfyWpFaWnpjDc3bHjs3+6++5vpGRmvNzY03F9ZWTmzs7MzF4DOsqxhsVg68vLyjk4rLt4xc+bM1ZqmDZjsiBACyWpFchgRdQ6Hg6SkpFQHw6ujbWLo6urCtddeu3bRokWvGoYBy/DlBHke5vT0KQxffotY2W9WA3gUkY0W+2xKI1yQ1gB4CDRT3SoAFcNx4WGPlNNUFSkpKU0PfPe7P/jFL37xdrfHk9JX4IkoSdixY8dtV1555XOJiYlNixYu3NDZ3l7W0NDQ1NbWljt+woSjU6dNe47n+USr1ZohiqLL4XBUtrS0XMSyLJebm3u6rwjC3nAch46ODpw6dSpkkVVJkuDzeluEQIXraAqz1+vF2LFjy771ne88VjhqlC/oajiM/DfMqf4zCC9/bbSJlZ2yOvCMvz7P84zkETNgFjH9C0xx/qpyINDuh4W4CGH2+/1ISknZc8utt/7kr6+++rKm66xwVj4NQRBQc/r06E3vvvvjFTfe+Ojx0lLD5/N9npiYiNGjRydUVFaOu3TRohcMw2jevHnz9lkzZ36w4KabXv/NU0/9sb29PT0pKWmzoigD2oqCCfnT09NDmgkkSYLNZtOjaU5gGAZ+vx+JiYld33vooe+kpKTUer3eWJgswmE1zArEvwKwNEZtRwGwA8DL/b2ySF5vmPv9HsB0mCv7g2Wkj5gNmDOkGQAWRvNTD2yJiO4sqAzmYmW0vGRqYRZ17RyuHyBmwtyfuBiG0RO9N2nSpD/fdNNN2evWrXuSYRjwHNdzHMMwECUJb7399vcdDsfJSZMnv+jxeNDV1YWpU6e+09DYuLGoqAjpGRlcS0vLk5mZmY0+nw+apv2QAQxPd7ehDhTG3Mu9Ttd1hFpo0zQNumEw0RopMwwDWZZhs9n8t91224MpyckfKbIMS2BEHiccgln+/XYA34LpcjQUPqpnYIZ5v4qBA1bCTUIjRiAE/sBH2QXTl3sw5puzvys2gnu1nud3GUl000D31AzgbpgVwa89z99TDvyeT8P01Hiyv88Afc+OQr2712GaX56E6Ul0Pm3yAIDvBf47bMRMmPsK6OjN2KIiTJ40CYuXLHmKYdnkN15//Yc2m+1L3hYCz0PVNOEfq1Y9e+3SpVkJTueznV1dXalpaVBkmVRVVaGzs1Nzu927rFYramtqYLFYNKvNhlCLdIQQsCzb4w0RSgwD4h21Xl9VFAiC4P/a9dc/mpiU9EYos8sw8wbMIJIlMP2W58Ms8X4+H0QTTNekD2H6PX8axjFbYQa2iOh/lMrBTMxfG8G9dMJ0A/sngHthul+Fa29tCYhab3wwzQNjMXAAhwVm53c+JcNOw/S7tQxwHQZmFZnyEOeqghmI8Q2YIr0gwnuphDnj2QjgA5idni9wXlvg/gjMEToLMydFX3Usj/f6/chZz6HCdNU7AXPAcCWAmwFcjsg8bMphivuLGAb3uLOJm2KZuq4jENas33vvvT/x+nz8xrff/r5ktSJo1ujJx6xp0j83bfp5dm7u0lmzZr1qGMY7siw319bWorWlBR3t7RBFEQ0NDRAlCQzLMoEfsd9hMMMw0HUdPr8fkiSFHDEzDBO1uZiqqhB4Xlu8ZMlPnE7ni6o6IgLKNADvB7ZUmPmZJwEYB9OJPw9mVJgD5oiHC3xUMsxsXW0wc2uUwfQ3PQnTjh2JQf0VAFswsA2aCVxvMKWa3gGwDWa1llkwO59CmMlvrIFzd+OLdKmfB4T15FnnkWGGq/8PBg5P5mB2CueTNGdvQJT4EMKsB+47FN0wTUnrAUyDGbFZDDNHSnJAYIMC2RkQ0M9gBhMdxblug7t63R96iTMTEO2+RPElAG8F9iF9PEddr7/7ILDlA5gK041vKoBcmCYUS+CYbpgdaGngne1HZJ33V0OYe752TYOm68qdd931kFWS/O+8/fZjqqoiuMhGCAHPcTAYBg319XM2NTXN+WjPnifT0tMPtbe3H5dEsb67u9vd3tYmgZDMrq6ufI/Hk3fs6NEniWHsDCWQOTk5SE1JCZkkKBruakGbst1u9y9ZsuRRXhBeVFUVUiAbXayprBx0gFNbYDsS41s2EFnipMHgCwjNZ+d5nk7ExmapD9E7aQOwM7Cd729WHeExXpij7EioCWz/jBtxi4C4LC+v6zo0VcU999zzo66urpY9u3f/UpZlsXd1bZZle8wcHZ2dWa2trUuPfv75UoZhYBFF6JpmZpEzkyYp6WlpCaFGoqqqIjEpCYqiIJQpgWEYqJo2aD/wYMa4tLS05ptuvvmH3d3db3g8npHYhigUSpSJ67R9Pp8PoiQ9fe2yZfelpac39+ehwHMcJEmCw+GA3W7v+bPT6YTNZoMkSapBiA6GQcgtBhBC0N3djfHjxx+571vfusVut7+hxbdNmUKhxJC4z6eqyDKciYmr77zzzuUTJkzYE4zoO5uzo+F6/hz4f8MwGGIYCLkNsQeELMvQNA1z585d/dDDDy9LTk7eI/v9MesUKBRK/BOXpozeBL0kbHb7gdvvuGP5ls2bnygtLX2wq6vLabeHHZjEGLrOhrIb67oOVVX7LWfVG0IINE0Ly12OYRhouo5ujwf5+fm1M2fP/h3R9ecFnu8xt1AoFEqQEVOBwDAMeL1ed3Z29k8efuSRFbPmzNke8FMOeSwhhDEMgzECifBDbbquh9w0TQvLXY4QAlmWQQwD11xzzRuPPvro8lH5+c/7fD7EOCkRhUIZIcT9iLk3DMPA5/NhdGHhjvnz5pVMmjjxG1u3bPn3LpdrDDEMcBwHrldQCvBFVEFQUAfCCCw6+v3+sARfU9V+OzbDMKCqKnhBIPkFBfuvv/76p1JTUzdnXXSRWlZWRkfJFAqlX0aUMANfRMjpmua22WwvLr/uuvWdHR3fObB//zfOtLZOdLvdsNpsPVGDDMPA0HXO6/NZQkbzqSr6rd7dx33ohsEHrxE8Jljh22azGaPHjDmwaNGiV1JSUlYJguANentQUaZQKAMx4oQ5CIE5CiaEtHA8/+uFCxe+Vt/Q8HVN0246dOjQEr/fz3A8D1VRkJiYqM6dO7cxlN3YMAw4nU5IgdSeA2GxWJCZlXWGAXrE3DAMJCQkdM9fsGAbgHVTJk/epGqa2zAMaJo2YJFXCoVCCXLBKIWnu7shLy/vf7Ozs1dNnjJl2rGjR68/VVW1FIC4cOHClyZOnPhpKPNEcPQbjmcGwzCYMX36mlMnT04uKyu7MTUtrTkvL++dKVOn/tOZmHj8ZHm57PF4IErSBfKGKRRKrGDiKEEOhUKhUDCCvDIoFArlqwIVZgqFQokzqDBTKBRKnEGFmUKhUOIMKswUCoUSZ1BhplAolDiDCjOFQqHEGVSYKRQKJc6gwkyhUChxBhVmCoVCiTOoMFMoFEqcQYWZQqFQ4gwqzBQKhRJnUGGmUCiUOIMKM4VCocQZVJgpFAolzqDCTKFQKHEGFWYKhUKJM6gwUygUSpxBhZlCoVDiDCrMFAqFEmdQYaZQKJQ4gwozhUKhxBlUmCkUCiXOoMJMoVAocQYVZgqFQokzqDBTKBRKnEGFmUKhUOKM/w/e+TYqEDM81AAAABJ0RVh0RVhJRjpPcmllbnRhdGlvbgAxhFjs7wAAAABJRU5ErkJggg==;" vertex="1" parent="1">
          <mxGeometry x="12.049999999999997" y="431.75" width="255.9" height="96.5" as="geometry" />
        </mxCell>
      </root>
    </mxGraphModel>
  </diagram>
</mxfile>
